<svg width="20" height="20" viewBox="0 0 20 20" fill="none" xmlns="http://www.w3.org/2000/svg">
<path d="M6.11621 2C6.87584 2.04099 7.60127 2.31919 8.18945 2.79199C8.28068 2.86535 8.36 2.95212 8.43262 3.04395L9.37988 4.24023C9.75917 4.71986 10.3368 4.99996 10.9482 5H17C18.1046 5 19 5.89543 19 7V8H14C10.6863 8 8 10.6863 8 14V16H3C1.89543 16 1 15.1046 1 14V4C1.00001 2.89544 1.89544 2.00001 3 2H6.11621Z" fill="#43454A"/>
<path d="M6.11621 2.00043C6.87584 2.04143 7.60128 2.31962 8.18945 2.79242C8.2806 2.86574 8.36006 2.95262 8.43262 3.04437L9.37988 4.24066C9.75918 4.72012 10.3369 5.00039 10.9482 5.00043H17C18.1046 5.00043 19 5.89586 19 7.00043V8.00043H18V7.00043C18 6.44814 17.5523 6.00043 17 6.00043H10.9482C10.0313 6.00039 9.16466 5.58074 8.5957 4.86176L7.64844 3.66449C7.60595 3.61077 7.5778 3.58405 7.5625 3.57172C7.14078 3.23278 6.62017 3.03223 6.07324 3.00043H3C2.44772 3.00043 2 3.44815 2 4.00043V14.0004C2.00023 14.5525 2.44786 15.0004 3 15.0004H8V16.0004H3C1.89557 16.0004 1.00023 15.1048 1 14.0004V4.00043C1 2.89586 1.89543 2.00043 3 2.00043H6.11621Z" fill="#D9D9D9"/>
<path fill-rule="evenodd" clip-rule="evenodd" d="M17.5812 14.7157L18.7057 15.5225C18.4893 16.1919 18.134 16.7988 17.6739 17.3093L16.413 16.7404C16.0541 17.0567 15.6326 17.3035 15.1695 17.46L15.0321 18.8366C14.6992 18.9073 14.354 18.9445 14 18.9445C13.646 18.9445 13.3007 18.9073 12.9679 18.8366L12.8305 17.46C12.3674 17.3035 11.9459 17.0567 11.587 16.7404L10.3261 17.3093C9.86597 16.7988 9.51071 16.1918 9.29431 15.5225L10.4188 14.7157C10.3728 14.4843 10.3487 14.245 10.3487 14C10.3487 13.755 10.3728 13.5157 10.4188 13.2842L9.29431 12.4774C9.51072 11.8081 9.86599 11.2012 10.3261 10.6907L11.587 11.2595C11.9459 10.9433 12.3674 10.6964 12.8305 10.54L12.9678 9.16334C13.3007 9.09264 13.646 9.05545 14 9.05545C14.3539 9.05545 14.6992 9.09265 15.0321 9.16334L15.1695 10.54C15.6326 10.6964 16.0541 10.9433 16.413 11.2595L17.6739 10.6907C18.134 11.2012 18.4893 11.8081 18.7057 12.4774L17.5812 13.2842C17.6272 13.5157 17.6513 13.755 17.6513 14C17.6513 14.2449 17.6272 14.4843 17.5812 14.7157ZM14 15.7499C14.9663 15.7499 15.7496 14.9665 15.7496 14.0001C15.7496 13.0338 14.9663 12.2504 14 12.2504C13.0337 12.2504 12.2503 13.0338 12.2503 14.0001C12.2503 14.9665 13.0337 15.7499 14 15.7499Z" fill="#548AF7"/>
</svg>
