<svg width="20" height="20" viewBox="0 0 20 20" fill="none" xmlns="http://www.w3.org/2000/svg">
<rect x="3.5" y="3.5" width="13" height="13" rx="1.5" fill="#43454A" stroke="#CED0D6"/>
<path d="M8.81818 12.1655V12.0085C8.82126 11.4699 8.86896 11.0406 8.96129 10.7205C9.0567 10.4004 9.19519 10.1419 9.37678 9.94496C9.55836 9.74799 9.77687 9.56948 10.0323 9.40945C10.2231 9.28634 10.3939 9.15862 10.5447 9.02628C10.6955 8.89394 10.8156 8.74775 10.9048 8.58771C10.9941 8.4246 11.0387 8.24302 11.0387 8.04297C11.0387 7.83061 10.9879 7.64441 10.8864 7.48438C10.7848 7.32434 10.6478 7.20123 10.4755 7.11506C10.3062 7.02888 10.1185 6.98579 9.91229 6.98579C9.71224 6.98579 9.52296 7.03042 9.34446 7.11967C9.16596 7.20585 9.01977 7.33511 8.9059 7.50746C8.79202 7.67673 8.73047 7.88755 8.72124 8.13991H6.83771C6.8531 7.52438 7.00083 7.01657 7.28089 6.61648C7.56096 6.2133 7.93182 5.91323 8.39347 5.71626C8.85511 5.51622 9.36446 5.41619 9.92152 5.41619C10.534 5.41619 11.0756 5.51776 11.5465 5.72088C12.0174 5.92093 12.3867 6.21177 12.6545 6.59339C12.9222 6.97502 13.0561 7.43513 13.0561 7.97372C13.0561 8.33381 12.9961 8.65388 12.8761 8.93395C12.7591 9.21094 12.5945 9.45715 12.3821 9.67258C12.1697 9.88494 11.9189 10.0773 11.6296 10.2496C11.3865 10.3943 11.1864 10.5451 11.0295 10.7021C10.8756 10.859 10.7602 11.0406 10.6832 11.2468C10.6094 11.453 10.5709 11.7069 10.5678 12.0085V12.1655H8.81818ZM9.73224 15.12C9.42448 15.12 9.16134 15.0123 8.94283 14.7969C8.72739 14.5784 8.62121 14.3168 8.62429 14.0121C8.62121 13.7105 8.72739 13.4519 8.94283 13.2365C9.16134 13.0211 9.42448 12.9134 9.73224 12.9134C10.0246 12.9134 10.2816 13.0211 10.5032 13.2365C10.7248 13.4519 10.8371 13.7105 10.8402 14.0121C10.8371 14.2152 10.7833 14.4014 10.6786 14.5707C10.5771 14.7369 10.4432 14.8707 10.277 14.9723C10.1108 15.0708 9.92921 15.12 9.73224 15.12Z" fill="#CED0D6"/>
</svg>
